{
	"asset":{
		"generator":"Khronos glTF Blender I/O v4.0.44",
		"version":"2.0"
	},
	"extensionsUsed":[
		"KHR_materials_emissive_strength"
	],
	"scene":0,
	"scenes":[
		{
			"name":"Scene",
			"nodes":[
				12
			]
		}
	],
	"nodes":[
		{
			"mesh":0,
			"name":"Bulb_Cap",
			"rotation":[
				0,
				0.7071065902709961,
				0,
				0.7071070671081543
			],
			"scale":[
				4.7903852462768555,
				5.156547546386719,
				4.7903852462768555
			],
			"translation":[
				0,
				-1.34355890750885,
				0
			]
		},
		{
			"mesh":1,
			"name":"Switch",
			"rotation":[
				0.6852038502693176,
				-0.17463023960590363,
				0.17463015019893646,
				0.6852038502693176
			],
			"scale":[
				0.3626649081707001,
				0.3626649081707001,
				0.36266493797302246
			],
			"translation":[
				-0.014287256635725498,
				0.0026657942216843367,
				0.026595022529363632
			]
		},
		{
			"children":[
				1
			],
			"mesh":2,
			"name":"Socket",
			"rotation":[
				0,
				0.7071065902709961,
				0,
				0.7071070671081543
			],
			"scale":[
				0.6864435076713562,
				0.6864435076713562,
				0.6864435076713562
			],
			"translation":[
				0,
				-0.08028841018676758,
				0
			]
		},
		{
			"children":[
				2
			],
			"mesh":3,
			"name":"Chain",
			"scale":[
				7.617229461669922,
				7.617229461669922,
				7.617229461669922
			],
			"translation":[
				0.00046885028132237494,
				-0.7085542678833008,
				3.0763610993744805e-05
			]
		},
		{
			"mesh":4,
			"name":"Filament_2",
			"rotation":[
				-1,
				0,
				0,
				7.549790836947068e-08
			],
			"translation":[
				0,
				-0.2689986526966095,
				0.10079418867826462
			]
		},
		{
			"children":[
				4
			],
			"mesh":5,
			"name":"Filament_1",
			"rotation":[
				0,
				0,
				-0.7071065902709961,
				0.7071069478988647
			],
			"scale":[
				0.06615693867206573,
				0.06615693867206573,
				0.06615693867206573
			],
			"translation":[
				0.009378845803439617,
				-1.7195594310760498,
				-0.0036781495437026024
			]
		},
		{
			"mesh":6,
			"name":"Glass",
			"rotation":[
				0,
				0.7071065902709961,
				2.1073426523798844e-06,
				0.7071070671081543
			],
			"scale":[
				4.569746494293213,
				4.569746494293213,
				4.569746494293213
			],
			"translation":[
				-6.67195490677841e-05,
				-1.721278429031372,
				-0.00034298081300221384
			]
		},
		{
			"mesh":7,
			"name":"Filament_connection",
			"rotation":[
				0.49999845027923584,
				-0.5000011920928955,
				-0.5000016093254089,
				0.4999987483024597
			],
			"scale":[
				0.01447715237736702,
				0.01447715237736702,
				0.01447715237736702
			],
			"translation":[
				0.002442118711769581,
				0.039065420627593994,
				-0.005365360993891954
			]
		},
		{
			"mesh":8,
			"name":"Filament_connection.2",
			"rotation":[
				-0.49999862909317017,
				0.5000016093254089,
				-0.5000012516975403,
				0.49999862909317017
			],
			"scale":[
				0.01447715051472187,
				0.01447715051472187,
				0.01447715051472187
			],
			"translation":[
				-0.002441039541736245,
				0.03906544670462608,
				0.005365491844713688
			]
		},
		{
			"mesh":9,
			"name":"Filament_Head",
			"rotation":[
				0.49999845027923584,
				-0.5000011920928955,
				-0.5000016093254089,
				0.4999987483024597
			],
			"scale":[
				0.01447715237736702,
				0.01447715237736702,
				0.01447715237736702
			],
			"translation":[
				0.004319090396165848,
				0.022151878103613853,
				-0.010542076081037521
			]
		},
		{
			"mesh":10,
			"name":"Filament_Head.2",
			"rotation":[
				-0.49999862909317017,
				0.5000016093254089,
				-0.5000012516975403,
				0.49999862909317017
			],
			"scale":[
				0.01447715051472187,
				0.01447715051472187,
				0.01447715051472187
			],
			"translation":[
				-0.004318202845752239,
				0.02215190976858139,
				0.010542189702391624
			]
		},
		{
			"children":[
				7,
				8,
				9,
				10
			],
			"mesh":11,
			"name":"Non_emisive",
			"rotation":[
				0,
				0.7071065902709961,
				2.1073426523798844e-06,
				0.7071070671081543
			],
			"scale":[
				4.569746494293213,
				4.569746494293213,
				4.569746494293213
			],
			"translation":[
				0.00048052583588287234,
				-1.6694144010543823,
				-0.0003425641916692257
			]
		},
		{
			"children":[
				0,
				3,
				5,
				6,
				11
			],
			"name":"Vintage Light Bulb",
			"scale":[
				0.131281316280365,
				0.131281316280365,
				0.131281316280365
			],
			"translation":[
				0,
				0.16932080686092377,
				0
			]
		}
	],
	"materials":[
		{
			"doubleSided":true,
			"name":"metal_cobrizo",
			"pbrMetallicRoughness":{
				"baseColorFactor":[
					0.25425106287002563,
					0.16773772239685059,
					0.08509879559278488,
					1
				],
				"roughnessFactor":0.5018518567085266
			}
		},
		{
			"doubleSided":true,
			"name":"metal_plateado_rugoso",
			"pbrMetallicRoughness":{
				"baseColorFactor":[
					0.533172607421875,
					0.533172607421875,
					0.533172607421875,
					1
				],
				"roughnessFactor":0.30000001192092896
			}
		},
		{
			"doubleSided":true,
			"name":"negro_pulido",
			"pbrMetallicRoughness":{
				"baseColorFactor":[
					0,
					0,
					0,
					1
				],
				"metallicFactor":0,
				"roughnessFactor":0.10000000149011612
			}
		},
		{
			"doubleSided":true,
			"name":"Plastic006",
			"normalTexture":{
				"index":0
			},
			"pbrMetallicRoughness":{
				"baseColorTexture":{
					"index":1
				},
				"metallicRoughnessTexture":{
					"index":2
				}
			}
		},
		{
			"doubleSided":true,
			"name":"Metal047B",
			"normalTexture":{
				"index":3
			},
			"pbrMetallicRoughness":{
				"baseColorTexture":{
					"index":4
				},
				"metallicRoughnessTexture":{
					"index":5
				}
			}
		},
		{
			"doubleSided":true,
			"emissiveFactor":[
				1,
				1,
				1
			],
			"extensions":{
				"KHR_materials_emissive_strength":{
					"emissiveStrength":155.6999969482422
				}
			},
			"name":"Emission Material (Must be Done manually in threejs)",
			"pbrMetallicRoughness":{
				"baseColorFactor":[
					0,
					0,
					0,
					1
				]
			}
		},
		{
			"doubleSided":true,
			"name":"vidrio",
			"pbrMetallicRoughness":{}
		},
		{
			"doubleSided":true,
			"name":"metal_cobrizo",
			"pbrMetallicRoughness":{
				"baseColorFactor":[
					0.25425106287002563,
					0.16773772239685059,
					0.08509879559278488,
					1
				],
				"roughnessFactor":0.5018518567085266
			}
		}
	],
	"meshes":[
		{
			"name":"bombillo-rosca.data.002",
			"primitives":[
				{
					"attributes":{
						"POSITION":0,
						"NORMAL":1
					},
					"indices":2,
					"material":0
				},
				{
					"attributes":{
						"POSITION":3,
						"NORMAL":4
					},
					"indices":5,
					"material":1
				},
				{
					"attributes":{
						"POSITION":6,
						"NORMAL":7
					},
					"indices":8,
					"material":2
				}
			]
		},
		{
			"name":"Circle.005",
			"primitives":[
				{
					"attributes":{
						"POSITION":9,
						"NORMAL":10,
						"TEXCOORD_0":11
					},
					"indices":12,
					"material":3
				}
			]
		},
		{
			"name":"bombillo-rosca.data.003",
			"primitives":[
				{
					"attributes":{
						"POSITION":13,
						"NORMAL":14,
						"TEXCOORD_0":15
					},
					"indices":16,
					"material":3
				}
			]
		},
		{
			"name":"Circle.004",
			"primitives":[
				{
					"attributes":{
						"POSITION":17,
						"NORMAL":18,
						"TEXCOORD_0":19
					},
					"indices":20,
					"material":4
				}
			]
		},
		{
			"name":"BezierCurve.004",
			"primitives":[
				{
					"attributes":{
						"POSITION":21,
						"NORMAL":22,
						"TEXCOORD_0":23
					},
					"indices":24,
					"material":5
				}
			]
		},
		{
			"name":"BezierCurve.001",
			"primitives":[
				{
					"attributes":{
						"POSITION":25,
						"NORMAL":26,
						"TEXCOORD_0":27
					},
					"indices":24,
					"material":5
				}
			]
		},
		{
			"name":"bombillo-vidrio.data.002",
			"primitives":[
				{
					"attributes":{
						"POSITION":28,
						"NORMAL":29
					},
					"indices":30,
					"material":6
				}
			]
		},
		{
			"name":"BezierCurve",
			"primitives":[
				{
					"attributes":{
						"POSITION":31,
						"NORMAL":32,
						"TEXCOORD_0":33
					},
					"indices":34,
					"material":7
				}
			]
		},
		{
			"name":"BezierCurve.003",
			"primitives":[
				{
					"attributes":{
						"POSITION":35,
						"NORMAL":36,
						"TEXCOORD_0":37
					},
					"indices":34,
					"material":7
				}
			]
		},
		{
			"name":"BezierCurve.002",
			"primitives":[
				{
					"attributes":{
						"POSITION":38,
						"NORMAL":39,
						"TEXCOORD_0":40
					},
					"indices":41,
					"material":4
				}
			]
		},
		{
			"name":"BezierCurve.005",
			"primitives":[
				{
					"attributes":{
						"POSITION":42,
						"NORMAL":43,
						"TEXCOORD_0":44
					},
					"indices":41,
					"material":4
				}
			]
		},
		{
			"name":"bombillo-vidrio.data.007",
			"primitives":[
				{
					"attributes":{
						"POSITION":45,
						"NORMAL":46
					},
					"indices":47,
					"material":6
				}
			]
		}
	],
	"textures":[
		{
			"sampler":0,
			"source":0
		},
		{
			"sampler":0,
			"source":1
		},
		{
			"sampler":0,
			"source":2
		},
		{
			"sampler":0,
			"source":3
		},
		{
			"sampler":0,
			"source":4
		},
		{
			"sampler":0,
			"source":5
		}
	],
	"images":[
		{
			"mimeType":"image/jpeg",
			"name":"Plastic006_1K-JPG_NormalGL",
			"uri":"textures/Plastic006_1K-JPG_NormalGL.jpg"
		},
		{
			"mimeType":"image/jpeg",
			"name":"Plastic006_1K-JPG_Color",
			"uri":"textures/Plastic006_1K-JPG_Color.jpg"
		},
		{
			"mimeType":"image/png",
			"name":"Plastic006_1K-JPG_Roughness",
			"uri":"textures/Plastic006_1K-JPG_Roughness.png"
		},
		{
			"mimeType":"image/jpeg",
			"name":"Metal047B_1K-JPG_NormalGL",
			"uri":"textures/Metal047B_1K-JPG_NormalGL.jpg"
		},
		{
			"mimeType":"image/jpeg",
			"name":"Metal047B_1K-JPG_Color",
			"uri":"textures/Metal047B_1K-JPG_Color.jpg"
		},
		{
			"mimeType":"image/png",
			"name":"Metal047B_1K-JPG_Roughness",
			"uri":"textures/Metal047B_1K-JPG_Roughness.png"
		}
	],
	"accessors":[
		{
			"bufferView":0,
			"componentType":5126,
			"count":24272,
			"max":[
				0.021132653579115868,
				0.011980853974819183,
				0.021132655441761017
			],
			"min":[
				-0.021132659167051315,
				-0.019024036824703217,
				-0.021132655441761017
			],
			"type":"VEC3"
		},
		{
			"bufferView":1,
			"componentType":5126,
			"count":24272,
			"type":"VEC3"
		},
		{
			"bufferView":2,
			"componentType":5123,
			"count":144864,
			"type":"SCALAR"
		},
		{
			"bufferView":3,
			"componentType":5126,
			"count":5506,
			"max":[
				0.007000898942351341,
				0.019273988902568817,
				0.0070009115152060986
			],
			"min":[
				-0.007000922225415707,
				0.01693376712501049,
				-0.0070009077899158
			],
			"type":"VEC3"
		},
		{
			"bufferView":4,
			"componentType":5126,
			"count":5506,
			"type":"VEC3"
		},
		{
			"bufferView":5,
			"componentType":5123,
			"count":32256,
			"type":"SCALAR"
		},
		{
			"bufferView":6,
			"componentType":5126,
			"count":3328,
			"max":[
				0.011397267691791058,
				0.01710336096584797,
				0.011397277005016804
			],
			"min":[
				-0.01139728631824255,
				0.011785918846726418,
				-0.01139727421104908
			],
			"type":"VEC3"
		},
		{
			"bufferView":7,
			"componentType":5126,
			"count":3328,
			"type":"VEC3"
		},
		{
			"bufferView":8,
			"componentType":5123,
			"count":18432,
			"type":"SCALAR"
		},
		{
			"bufferView":9,
			"componentType":5126,
			"count":4636,
			"max":[
				0.015971072018146515,
				0.022901253774762154,
				0.01595081016421318
			],
			"min":[
				-0.015971072018146515,
				-0.022901255637407303,
				-0.01595081016421318
			],
			"type":"VEC3"
		},
		{
			"bufferView":10,
			"componentType":5126,
			"count":4636,
			"type":"VEC3"
		},
		{
			"bufferView":11,
			"componentType":5126,
			"count":4636,
			"type":"VEC2"
		},
		{
			"bufferView":12,
			"componentType":5123,
			"count":16500,
			"type":"SCALAR"
		},
		{
			"bufferView":13,
			"componentType":5126,
			"count":34460,
			"max":[
				0.023815341293811798,
				0.023648057132959366,
				0.0238153375685215
			],
			"min":[
				-0.023815341293811798,
				-0.023648057132959366,
				-0.0238153375685215
			],
			"type":"VEC3"
		},
		{
			"bufferView":14,
			"componentType":5126,
			"count":34460,
			"type":"VEC3"
		},
		{
			"bufferView":15,
			"componentType":5126,
			"count":34460,
			"type":"VEC2"
		},
		{
			"bufferView":16,
			"componentType":5123,
			"count":150144,
			"type":"SCALAR"
		},
		{
			"bufferView":17,
			"componentType":5126,
			"count":7760,
			"max":[
				0.010745381936430931,
				0.06445610523223877,
				0.008368220180273056
			],
			"min":[
				-0.010745381936430931,
				-0.06445610523223877,
				-0.008368220180273056
			],
			"type":"VEC3"
		},
		{
			"bufferView":18,
			"componentType":5126,
			"count":7760,
			"type":"VEC3"
		},
		{
			"bufferView":19,
			"componentType":5126,
			"count":7760,
			"type":"VEC2"
		},
		{
			"bufferView":20,
			"componentType":5123,
			"count":34176,
			"type":"SCALAR"
		},
		{
			"bufferView":21,
			"componentType":5126,
			"count":858,
			"max":[
				2.21757173538208,
				1.0250569581985474,
				0.5053601861000061
			],
			"min":[
				-2.21757173538208,
				-1.0250569581985474,
				-0.5053601861000061
			],
			"type":"VEC3"
		},
		{
			"bufferView":22,
			"componentType":5126,
			"count":858,
			"type":"VEC3"
		},
		{
			"bufferView":23,
			"componentType":5126,
			"count":858,
			"type":"VEC2"
		},
		{
			"bufferView":24,
			"componentType":5123,
			"count":4638,
			"type":"SCALAR"
		},
		{
			"bufferView":25,
			"componentType":5126,
			"count":858,
			"max":[
				2.21757173538208,
				1.0250569581985474,
				0.5053601861000061
			],
			"min":[
				-2.21757173538208,
				-1.0250569581985474,
				-0.5053601861000061
			],
			"type":"VEC3"
		},
		{
			"bufferView":26,
			"componentType":5126,
			"count":858,
			"type":"VEC3"
		},
		{
			"bufferView":27,
			"componentType":5126,
			"count":858,
			"type":"VEC2"
		},
		{
			"bufferView":28,
			"componentType":5126,
			"count":27266,
			"max":[
				0.05250955745577812,
				0.06472064554691315,
				0.05250954255461693
			],
			"min":[
				-0.052509523928165436,
				-0.06477686762809753,
				-0.05250954255461693
			],
			"type":"VEC3"
		},
		{
			"bufferView":29,
			"componentType":5126,
			"count":27266,
			"type":"VEC3"
		},
		{
			"bufferView":30,
			"componentType":5123,
			"count":163584,
			"type":"SCALAR"
		},
		{
			"bufferView":31,
			"componentType":5126,
			"count":649,
			"max":[
				1.1278703212738037,
				0.29172763228416443,
				0.12805378437042236
			],
			"min":[
				-1.1278703212738037,
				-0.29172763228416443,
				-0.12805378437042236
			],
			"type":"VEC3"
		},
		{
			"bufferView":32,
			"componentType":5126,
			"count":649,
			"type":"VEC3"
		},
		{
			"bufferView":33,
			"componentType":5126,
			"count":649,
			"type":"VEC2"
		},
		{
			"bufferView":34,
			"componentType":5123,
			"count":3534,
			"type":"SCALAR"
		},
		{
			"bufferView":35,
			"componentType":5126,
			"count":649,
			"max":[
				1.1278703212738037,
				0.29172763228416443,
				0.12805378437042236
			],
			"min":[
				-1.1278703212738037,
				-0.29172763228416443,
				-0.12805378437042236
			],
			"type":"VEC3"
		},
		{
			"bufferView":36,
			"componentType":5126,
			"count":649,
			"type":"VEC3"
		},
		{
			"bufferView":37,
			"componentType":5126,
			"count":649,
			"type":"VEC2"
		},
		{
			"bufferView":38,
			"componentType":5126,
			"count":353,
			"max":[
				0.1621273159980774,
				0.1226317435503006,
				0.10610330104827881
			],
			"min":[
				-0.1621273159980774,
				-0.1226317435503006,
				-0.10610330104827881
			],
			"type":"VEC3"
		},
		{
			"bufferView":39,
			"componentType":5126,
			"count":353,
			"type":"VEC3"
		},
		{
			"bufferView":40,
			"componentType":5126,
			"count":353,
			"type":"VEC2"
		},
		{
			"bufferView":41,
			"componentType":5123,
			"count":1506,
			"type":"SCALAR"
		},
		{
			"bufferView":42,
			"componentType":5126,
			"count":353,
			"max":[
				0.1621273159980774,
				0.1226317435503006,
				0.10610330104827881
			],
			"min":[
				-0.1621273159980774,
				-0.1226317435503006,
				-0.10610330104827881
			],
			"type":"VEC3"
		},
		{
			"bufferView":43,
			"componentType":5126,
			"count":353,
			"type":"VEC3"
		},
		{
			"bufferView":44,
			"componentType":5126,
			"count":353,
			"type":"VEC2"
		},
		{
			"bufferView":45,
			"componentType":5126,
			"count":10648,
			"max":[
				0.01696591265499592,
				0.053339019417762756,
				0.01696591265499592
			],
			"min":[
				-0.016965914517641068,
				-0.05335726588964462,
				-0.016965914517641068
			],
			"type":"VEC3"
		},
		{
			"bufferView":46,
			"componentType":5126,
			"count":10648,
			"type":"VEC3"
		},
		{
			"bufferView":47,
			"componentType":5123,
			"count":63360,
			"type":"SCALAR"
		}
	],
	"bufferViews":[
		{
			"buffer":0,
			"byteLength":291264,
			"byteOffset":0,
			"target":34962
		},
		{
			"buffer":0,
			"byteLength":291264,
			"byteOffset":291264,
			"target":34962
		},
		{
			"buffer":0,
			"byteLength":289728,
			"byteOffset":582528,
			"target":34963
		},
		{
			"buffer":0,
			"byteLength":66072,
			"byteOffset":872256,
			"target":34962
		},
		{
			"buffer":0,
			"byteLength":66072,
			"byteOffset":938328,
			"target":34962
		},
		{
			"buffer":0,
			"byteLength":64512,
			"byteOffset":1004400,
			"target":34963
		},
		{
			"buffer":0,
			"byteLength":39936,
			"byteOffset":1068912,
			"target":34962
		},
		{
			"buffer":0,
			"byteLength":39936,
			"byteOffset":1108848,
			"target":34962
		},
		{
			"buffer":0,
			"byteLength":36864,
			"byteOffset":1148784,
			"target":34963
		},
		{
			"buffer":0,
			"byteLength":55632,
			"byteOffset":1185648,
			"target":34962
		},
		{
			"buffer":0,
			"byteLength":55632,
			"byteOffset":1241280,
			"target":34962
		},
		{
			"buffer":0,
			"byteLength":37088,
			"byteOffset":1296912,
			"target":34962
		},
		{
			"buffer":0,
			"byteLength":33000,
			"byteOffset":1334000,
			"target":34963
		},
		{
			"buffer":0,
			"byteLength":413520,
			"byteOffset":1367000,
			"target":34962
		},
		{
			"buffer":0,
			"byteLength":413520,
			"byteOffset":1780520,
			"target":34962
		},
		{
			"buffer":0,
			"byteLength":275680,
			"byteOffset":2194040,
			"target":34962
		},
		{
			"buffer":0,
			"byteLength":300288,
			"byteOffset":2469720,
			"target":34963
		},
		{
			"buffer":0,
			"byteLength":93120,
			"byteOffset":2770008,
			"target":34962
		},
		{
			"buffer":0,
			"byteLength":93120,
			"byteOffset":2863128,
			"target":34962
		},
		{
			"buffer":0,
			"byteLength":62080,
			"byteOffset":2956248,
			"target":34962
		},
		{
			"buffer":0,
			"byteLength":68352,
			"byteOffset":3018328,
			"target":34963
		},
		{
			"buffer":0,
			"byteLength":10296,
			"byteOffset":3086680,
			"target":34962
		},
		{
			"buffer":0,
			"byteLength":10296,
			"byteOffset":3096976,
			"target":34962
		},
		{
			"buffer":0,
			"byteLength":6864,
			"byteOffset":3107272,
			"target":34962
		},
		{
			"buffer":0,
			"byteLength":9276,
			"byteOffset":3114136,
			"target":34963
		},
		{
			"buffer":0,
			"byteLength":10296,
			"byteOffset":3123412,
			"target":34962
		},
		{
			"buffer":0,
			"byteLength":10296,
			"byteOffset":3133708,
			"target":34962
		},
		{
			"buffer":0,
			"byteLength":6864,
			"byteOffset":3144004,
			"target":34962
		},
		{
			"buffer":0,
			"byteLength":327192,
			"byteOffset":3150868,
			"target":34962
		},
		{
			"buffer":0,
			"byteLength":327192,
			"byteOffset":3478060,
			"target":34962
		},
		{
			"buffer":0,
			"byteLength":327168,
			"byteOffset":3805252,
			"target":34963
		},
		{
			"buffer":0,
			"byteLength":7788,
			"byteOffset":4132420,
			"target":34962
		},
		{
			"buffer":0,
			"byteLength":7788,
			"byteOffset":4140208,
			"target":34962
		},
		{
			"buffer":0,
			"byteLength":5192,
			"byteOffset":4147996,
			"target":34962
		},
		{
			"buffer":0,
			"byteLength":7068,
			"byteOffset":4153188,
			"target":34963
		},
		{
			"buffer":0,
			"byteLength":7788,
			"byteOffset":4160256,
			"target":34962
		},
		{
			"buffer":0,
			"byteLength":7788,
			"byteOffset":4168044,
			"target":34962
		},
		{
			"buffer":0,
			"byteLength":5192,
			"byteOffset":4175832,
			"target":34962
		},
		{
			"buffer":0,
			"byteLength":4236,
			"byteOffset":4181024,
			"target":34962
		},
		{
			"buffer":0,
			"byteLength":4236,
			"byteOffset":4185260,
			"target":34962
		},
		{
			"buffer":0,
			"byteLength":2824,
			"byteOffset":4189496,
			"target":34962
		},
		{
			"buffer":0,
			"byteLength":3012,
			"byteOffset":4192320,
			"target":34963
		},
		{
			"buffer":0,
			"byteLength":4236,
			"byteOffset":4195332,
			"target":34962
		},
		{
			"buffer":0,
			"byteLength":4236,
			"byteOffset":4199568,
			"target":34962
		},
		{
			"buffer":0,
			"byteLength":2824,
			"byteOffset":4203804,
			"target":34962
		},
		{
			"buffer":0,
			"byteLength":127776,
			"byteOffset":4206628,
			"target":34962
		},
		{
			"buffer":0,
			"byteLength":127776,
			"byteOffset":4334404,
			"target":34962
		},
		{
			"buffer":0,
			"byteLength":126720,
			"byteOffset":4462180,
			"target":34963
		}
	],
	"samplers":[
		{
			"magFilter":9729,
			"minFilter":9987
		}
	],
	"buffers":[
		{
			"byteLength":4588900,
			"uri":"bulb.bin"
		}
	]
}
